<svg xmlns="http://www.w3.org/2000/svg" version="1.1" viewBox="-5.0 -10.0 110.0 135.0">
 <path d="m92.238 24.375-39.293 39.293c-0.44141 0.44141-1.0195 0.67578-1.5977 0.69531l-14.641 1.5312c-1.4961 0.15625-2.7695-1.1094-2.5898-2.6523l1.543-14.746c0.058594-0.5625 0.30859-1.0625 0.67969-1.4336l-0.003906-0.003906 39.293-39.293c4.7812-4.7812 11.391-3.0469 15.523 1.0859l0.003906-0.003906c4.125 4.1211 5.8594 10.75 1.082 15.527zm-3.6992 21.797h-4.7461v36.789c0 4.0664-3.3398 7.4062-7.4062 7.4062h-59.348c-4.0664 0-7.4062-3.3398-7.4062-7.4062v-59.348c0-4.0703 3.3398-7.4062 7.4062-7.4062h36.789v-4.7461h-36.789c-6.6914 0-12.156 5.4648-12.156 12.152v59.348c0 6.6914 5.4648 12.152 12.152 12.152h59.348c6.6914 0 12.152-5.4648 12.152-12.156zm-12.27-32.336 9.8945 9.8945 2.7148-2.7148c2.6992-2.6992 1.2422-6.4922-1.082-8.8125l0.003906-0.003906c-2.3125-2.3125-6.1211-3.7734-8.8203-1.0781zm6.5391 13.254-9.8945-9.8945-32.637 32.633-1.1562 11.051 11.051-1.1562z" fill-rule="evenodd"/>
<text x="0.0" y="117.5" font-size="5.0" font-weight="bold" font-family="Arbeit Regular, Helvetica, Arial-Unicode, Arial, Sans-serif" fill="#000000">Created by Ibad Syukron</text><text x="0.0" y="122.5" font-size="5.0" font-weight="bold" font-family="Arbeit Regular, Helvetica, Arial-Unicode, Arial, Sans-serif" fill="#000000">from Noun Project</text></svg>