<svg xmlns="http://www.w3.org/2000/svg" version="1.1" viewBox="-5.0 -10.0 110.0 135.0">
 <g>
  <path d="m56.648 30.922-17.688 17.688c-0.37891 0.37891-0.58984 0.91016-0.58984 1.4492l0.17188 10.059c0.019531 1.0781 0.89062 1.9492 1.9688 1.9688l10.07 0.17187h0.03125c0.53125 0 1.0391-0.21094 1.4102-0.58984l23.051-23.051c2.2695-2.2695 2.2695-5.9688 0-8.2383l-4.8086-4.8086c-1.1016-1.1016-2.5703-1.7109-4.1211-1.7109-1.5586 0-3.0195 0.60938-4.1211 1.7109l-5.375 5.3516c0.011718-0.011719 0-0.011719 0 0zm-6.8594 27.316-7.2812-0.12109-0.12109-7.2812 15.68-15.68 7.3984 7.3984zm15.051-29.848c0.69141-0.69141 1.8984-0.69141 2.5898 0l4.8086 4.8086c0.71094 0.71094 0.71094 1.8711 0 2.5898l-3.9414 3.9414-7.3984-7.3984z"/>
  <path d="m34.211 77.57h31.57c6.5 0 11.789-5.2891 11.789-11.789v-15.781c0-1.1016-0.89844-2-2-2-1.1016 0-2 0.89844-2 2v15.789c0 4.2891-3.4883 7.7891-7.7891 7.7891h-31.57c-4.2891 0-7.7891-3.4883-7.7891-7.7891v-31.578c0-4.2891 3.4883-7.7891 7.7891-7.7891h16.77c1.1016 0 2-0.89844 2-2s-0.89844-2-2-2h-16.77c-6.5 0-11.789 5.2891-11.789 11.789v31.57c0.007813 6.5078 5.2891 11.789 11.789 11.789z"/>
 </g>
<text x="0.0" y="117.5" font-size="5.0" font-weight="bold" font-family="Arbeit Regular, Helvetica, Arial-Unicode, Arial, Sans-serif" fill="#000000">Created by iconlabs</text><text x="0.0" y="122.5" font-size="5.0" font-weight="bold" font-family="Arbeit Regular, Helvetica, Arial-Unicode, Arial, Sans-serif" fill="#000000">from Noun Project</text></svg>